<svg xmlns="http://www.w3.org/2000/svg" aria-hidden="true" style="position:absolute;width:0;height:0;overflow:hidden">
  <defs>
    <symbol id="burger-menu" viewBox="0 0 57 32">
      <path fill="#39515e" d="M1.333 0h53.804c.736 0 1.333.597 1.333 1.333v2.98c0 .736-.597 1.333-1.333 1.333H1.333A1.333 1.333 0 0 1 0 4.313v-2.98C0 .597.597 0 1.333 0zM1.333 13.176h53.804c.736 0 1.333.597 1.333 1.333v2.98c0 .736-.597 1.333-1.333 1.333H1.333A1.333 1.333 0 0 1 0 17.489v-2.98c0-.736.597-1.333 1.333-1.333zM1.333 26.353h37.276c.736 0 1.333.597 1.333 1.333v2.98c0 .736-.597 1.333-1.333 1.333H1.333A1.333 1.333 0 0 1 0 30.666v-2.98c0-.736.597-1.333 1.333-1.333z" style="fill:var(--color1, #39515e)"/>
    </symbol>
  </defs>
</svg>